# xmcd
#
# Track frame offsets: 
#        150
#        18247
#        39550
#        60655
#        80235
#        97685
#        123222
#        139057
#        161182
#        176742
#        196270
#        219980
#
# Disc length: 3179 seconds
#
# Revision: 2
# Processed by: cddbd v1.4PL0 Copyright (c) Steve Scherf et al.
# Submitted via: ExactAudioCopy v0.90b3
#
DISCID=9e0c690c
DTITLE=Debbie Davies - Picture This
DYEAR=1993
DGENRE=Blues
TTITLE0=Picture This
TTITLE1=Don't Take Advantage Of Me
TTITLE2=24 Hour Fool
TTITLE3=I Wonder Why (You're So Mean To Me)
TTITLE4=Livin' On Lies
TTITLE5=Better Off With The Blues
TTITLE6=Sidetracked
TTITLE7=Lovin' Cup
TTITLE8=Buzz Me
TTITLE9=San-Ho-Zay
TTITLE10=How Long Till I Win Your Love?
TTITLE11=Going Back To IUKA
EXTD=
EXTT0=
EXTT1=
EXTT2=
EXTT3=
EXTT4=
EXTT5=
EXTT6=
EXTT7=
EXTT8=
EXTT9=
EXTT10=
EXTT11=
PLAYORDER=
